<svg xmlns="http://www.w3.org/2000/svg" viewBox="0 0 120 120" fill="none">
  <rect width="120" height="120" rx="28" fill="#FFF3E9"/>
  <path d="M34 46L48 20L59 44" fill="#F39C6B"/>
  <path d="M86 46L72 20L61 44" fill="#2F2D3A"/>
  <circle cx="60" cy="67" r="34" fill="#FFE6D1"/>
  <path d="M60 101C75.464 101 88 88.464 88 73C88 57.536 75.464 45 60 45C44.536 45 32 57.536 32 73C32 88.464 44.536 101 60 101Z" fill="#FFF6E9"/>
  <path d="M45 43C48.5 39 55 36 60 36V57H39C39 52 41.5 46.5 45 43Z" fill="#F58C5B"/>
  <path d="M60 36C71 36 80 44 80 55H60V36Z" fill="#353245"/>
  <circle cx="48" cy="69" r="4.5" fill="#2F2D3A"/>
  <circle cx="72" cy="69" r="4.5" fill="#2F2D3A"/>
  <path d="M60 74L55 81H65L60 74Z" fill="#F27E80"/>
  <path d="M52 87C54 91 56.7 93 60 93C63.3 93 66 91 68 87" stroke="#2F2D3A" stroke-width="3.5" stroke-linecap="round"/>
  <path d="M43 79H28" stroke="#2F2D3A" stroke-width="3" stroke-linecap="round"/>
  <path d="M77 79H92" stroke="#2F2D3A" stroke-width="3" stroke-linecap="round"/>
</svg>