<svg xmlns="http://www.w3.org/2000/svg" viewBox="0 0 120 120" fill="none">
  <rect width="120" height="120" rx="28" fill="#FFF0ED"/>
  <path d="M35 46L49 20L59 44" fill="#F6A07F"/>
  <path d="M85 46L71 20L61 44" fill="#F6A07F"/>
  <circle cx="60" cy="69" r="35" fill="#F9BEA1"/>
  <path d="M60 101C74.912 101 87 88.912 87 74C87 59.088 74.912 47 60 47C45.088 47 33 59.088 33 74C33 88.912 45.088 101 60 101Z" fill="#FFF9F1"/>
  <circle cx="48" cy="70" r="4.5" fill="#493745"/>
  <circle cx="72" cy="70" r="4.5" fill="#493745"/>
  <path d="M60 75L55 81H65L60 75Z" fill="#F07A7A"/>
  <path d="M52 87C54 91 57 93 60 93C63 93 66 91 68 87" stroke="#493745" stroke-width="3.5" stroke-linecap="round"/>
  <path d="M43 79H28" stroke="#493745" stroke-width="3" stroke-linecap="round"/>
  <path d="M77 79H92" stroke="#493745" stroke-width="3" stroke-linecap="round"/>
  <circle cx="42" cy="72" r="5" fill="#FFD0D2"/>
  <circle cx="78" cy="72" r="5" fill="#FFD0D2"/>
</svg>